<svg id="Capa_1" enable-background="new 0 0 512 512" height="512" viewBox="0 0 512 512" width="512" xmlns="http://www.w3.org/2000/svg"><g><g><path d="m256 512c-99.567 0-180.282-80.715-180.282-180.282v-151.436c0-99.567 80.715-180.282 180.282-180.282 99.567 0 180.281 80.715 180.281 180.282v151.437c.001 99.566-80.714 180.281-180.281 180.281z" fill="#b0d8fd"/></g><g><g><path d="m77.142 157.537c-.938 7.45-1.424 15.04-1.424 22.745v151.437c0 99.566 80.715 180.281 180.282 180.281 60.565 0 114.152-29.868 146.843-75.675z" fill="#72bafd"/></g></g><g><path d="m256 38.632c-10.668 0-19.316-8.648-19.316-19.316s8.648-19.316 19.316-19.316c-99.567 0-180.282 80.715-180.282 180.281v151.437c0 99.567 80.715 180.282 180.282 180.282 45.656 0 87.339-16.98 119.103-44.958l.018-.096-219.33-186.456z" fill="#9ccefd"/></g><g><circle cx="256" cy="180.282" fill="#ffdfcf" r="141.716"/></g><g><path d="m196.999 280.49c-55.255-55.255-55.255-145.162 0-200.417 22.384-22.384 50.455-35.698 79.605-39.946-42.807-6.239-87.941 7.075-120.812 39.946-55.255 55.255-55.255 145.162 0 200.417 32.871 32.871 78.005 46.185 120.812 39.946-29.15-4.248-57.221-17.562-79.605-39.946z" fill="#ffcebf"/></g><g><g><g><ellipse cx="174.042" cy="219.545" fill="#fda0c1" rx="30.241" ry="24.082"/></g><g><ellipse cx="337.958" cy="219.545" fill="#fda0c1" rx="30.241" ry="24.082"/></g></g><g><path d="m191.667 203.862c-4.142 0-7.5-3.357-7.5-7.5v-12.361c0-4.143 3.358-7.5 7.5-7.5s7.5 3.357 7.5 7.5v12.361c0 4.143-3.358 7.5-7.5 7.5z" fill="#6e6e6e"/></g><g><path d="m320.333 203.862c-4.143 0-7.5-3.357-7.5-7.5v-12.361c0-4.143 3.357-7.5 7.5-7.5s7.5 3.357 7.5 7.5v12.361c0 4.143-3.357 7.5-7.5 7.5z" fill="#6e6e6e"/></g><g><path d="m256 211.222c-8.667 0-16.91-3.754-22.615-10.299-2.722-3.122-2.396-7.86.726-10.581 3.123-2.724 7.86-2.398 10.582.726 2.855 3.275 6.977 5.154 11.307 5.154 4.331 0 8.452-1.879 11.308-5.154 2.721-3.122 7.458-3.449 10.581-.726 3.123 2.721 3.447 7.459.726 10.581-5.705 6.545-13.948 10.299-22.615 10.299z" fill="#6e6e6e"/></g></g><g><path d="m310.354 109.421c-8.674 21.229-33.002 31.444-54.232 22.771-16.218-6.627-24.021-25.212-17.395-41.43 4.988-12.209 18.983-18.08 31.187-13.096 9.001 3.679 13.332 13.994 9.655 22.994-1.274 3.118-3.686 5.553-6.791 6.856-3.819 1.604-5.615 5.999-4.012 9.818 1.604 3.82 6 5.618 9.818 4.012 6.799-2.854 12.08-8.186 14.87-15.012 6.805-16.658-1.21-35.748-17.867-42.555-19.865-8.113-42.63 1.444-50.747 21.308-9.754 23.874 1.732 51.233 25.607 60.989 6.985 2.854 14.214 4.204 21.331 4.204 22.315-.001 43.511-13.287 52.459-35.187 6.958-17.027 6.867-35.745-.253-52.705-1.278-3.043-2.762-5.959-4.424-8.745-10.37-5.226-21.465-9.213-33.091-11.771 23.63 12.994 34.325 41.999 23.885 67.549z" fill="#c4715a"/></g></g></svg>